<?xml version="1.0" encoding="UTF-8"?>
<!DOCTYPE svg PUBLIC "-//W3C//DTD SVG 1.1//EN" "http://www.w3.org/Graphics/SVG/1.1/DTD/svg11.dtd">
<svg xmlns="http://www.w3.org/2000/svg" version="1.1" width="200px" height="200px" style="shape-rendering:geometricPrecision; text-rendering:geometricPrecision; image-rendering:optimizeQuality; fill-rule:evenodd; clip-rule:evenodd" xmlns:xlink="http://www.w3.org/1999/xlink">
<g><path style="opacity:0.997" fill="#1196da" d="M 86.5,-0.5 C 95.1667,-0.5 103.833,-0.5 112.5,-0.5C 150.39,6.21403 177.224,27.214 193,62.5C 195.821,70.4594 197.987,78.4594 199.5,86.5C 199.5,95.1667 199.5,103.833 199.5,112.5C 192.995,149.517 172.662,176.017 138.5,192C 129.638,195.463 120.638,197.963 111.5,199.5C 103.167,199.5 94.8333,199.5 86.5,199.5C 68.9167,196.711 52.9167,190.044 38.5,179.5C 38.5,177.5 37.5,176.5 35.5,176.5C 28.7638,172.099 23.4305,166.432 19.5,159.5C 19.573,157.973 18.9063,156.973 17.5,156.5C 12.4165,150.681 8.58321,144.014 6,136.5C 3.17848,128.537 1.01181,120.537 -0.5,112.5C -0.5,104.167 -0.5,95.8333 -0.5,87.5C 8.887,38.6917 37.887,9.35841 86.5,-0.5 Z M 58.5,39.5 C 60.335,40.1223 61.5017,41.4556 62,43.5C 64.0137,48.7055 65.5137,54.0388 66.5,59.5C 65.054,65.3145 61.554,66.9811 56,64.5C 54.9526,61.9615 54.4526,59.2948 54.5,56.5C 55.01,50.6372 56.3434,44.9706 58.5,39.5 Z M 146.5,50.5 C 147.499,57.0943 146.999,63.7609 145,70.5C 143.763,75.7465 140.596,77.5798 135.5,76C 132.039,73.0127 131.539,69.5127 134,65.5C 137.625,60.0426 141.791,55.0426 146.5,50.5 Z M 80.5,55.5 C 81.2015,64.5386 78.2015,72.3719 71.5,79C 64.2277,81.729 61.061,79.229 62,71.5C 65.387,67.5538 69.5537,64.7204 74.5,63C 77.1177,60.8943 79.1177,58.3943 80.5,55.5 Z M 37.5,56.5 C 38.9335,57.8333 40.2668,59.3333 41.5,61C 46.4188,64.0423 51.2522,67.209 56,70.5C 58.9093,77.2475 56.7426,80.4142 49.5,80C 41.819,74.1715 37.819,66.3382 37.5,56.5 Z M 119.5,56.5 C 120.314,58.631 120.814,60.9644 121,63.5C 124.032,68.5203 127.032,73.5203 130,78.5C 130.833,84.3333 128.333,86.8333 122.5,86C 118.121,82.9037 116.121,78.5704 116.5,73C 117.181,67.4293 118.181,61.9293 119.5,56.5 Z M 111.5,73.5 C 112.48,80.7932 115.646,87.1265 121,92.5C 124.107,98.2173 122.607,101.884 116.5,103.5C 112.138,102.139 109.638,99.1393 109,94.5C 108.593,87.3647 109.426,80.3647 111.5,73.5 Z M 37.5,74.5 C 41.1499,79.9701 46.1499,83.8035 52.5,86C 59.1878,91.1864 59.0212,95.6864 52,99.5C 45.6224,97.4526 41.6224,93.1192 40,86.5C 38.846,82.553 38.0127,78.553 37.5,74.5 Z M 80.5,74.5 C 81.088,81.6058 79.2546,88.2725 75,94.5C 71.7191,98.2703 67.8858,99.4369 63.5,98C 61.2711,95.447 60.9377,92.6136 62.5,89.5C 66.4916,86.1691 70.8249,83.3358 75.5,81C 77.7899,79.2228 79.4566,77.0562 80.5,74.5 Z M 158.5,76.5 C 154.532,84.9727 148.032,90.3061 139,92.5C 131.96,90.9724 130.794,87.4724 135.5,82C 143.266,80.4916 150.933,78.6582 158.5,76.5 Z M 37.5,93.5 C 38.6896,95.3545 40.0229,97.1879 41.5,99C 46.4188,102.042 51.2522,105.209 56,108.5C 58.9093,115.248 56.7426,118.414 49.5,118C 44.0502,114.206 40.5502,109.039 39,102.5C 38.304,99.5219 37.804,96.5219 37.5,93.5 Z M 80.5,93.5 C 81.2015,102.539 78.2015,110.372 71.5,117C 64.2277,119.729 61.061,117.229 62,109.5C 65.387,105.554 69.5537,102.72 74.5,101C 77.1177,98.8943 79.1177,96.3943 80.5,93.5 Z M 102.5,93.5 C 103.167,93.8333 103.833,94.1667 104.5,94.5C 104.259,96.8984 104.926,98.8984 106.5,100.5C 106.427,102.027 107.094,103.027 108.5,103.5C 111.014,107.194 113.014,111.194 114.5,115.5C 110.945,121.781 106.779,122.115 102,116.5C 100.112,108.811 100.278,101.145 102.5,93.5 Z M 150.5,93.5 C 146.555,101.944 140.055,107.278 131,109.5C 123.96,107.972 122.794,104.472 127.5,99C 135.249,97.4277 142.916,95.5944 150.5,93.5 Z M 102.5,124.5 C 102.427,126.027 103.094,127.027 104.5,127.5C 107.134,137.037 103.968,140.037 95,136.5C 90.8563,127.602 90.8563,118.602 95,109.5C 95.4105,115.655 97.9105,120.655 102.5,124.5 Z M 142.5,110.5 C 138.351,118.812 131.851,124.479 123,127.5C 115.861,125.511 114.695,121.678 119.5,116C 125.465,114.869 131.465,113.869 137.5,113C 139.193,112.153 140.86,111.32 142.5,110.5 Z M 37.5,113.5 C 41.1499,118.97 46.1499,122.803 52.5,125C 59.3002,130.1 59.1336,134.6 52,138.5C 45.6224,136.453 41.6224,132.119 40,125.5C 38.846,121.553 38.0127,117.553 37.5,113.5 Z M 80.5,113.5 C 81.088,120.606 79.2546,127.272 75,133.5C 71.7191,137.27 67.8858,138.437 63.5,137C 61.2711,134.447 60.9377,131.614 62.5,128.5C 66.4916,125.169 70.8249,122.336 75.5,120C 77.7899,118.223 79.4566,116.056 80.5,113.5 Z M 132.5,128.5 C 133.239,128.369 133.906,128.536 134.5,129C 130.131,137.037 123.631,142.537 115,145.5C 105.657,142.308 105.157,138.141 113.5,133C 118.511,132.415 123.511,131.749 128.5,131C 130.066,130.392 131.4,129.558 132.5,128.5 Z M 55.5,141.5 C 58.1667,141.5 60.8333,141.5 63.5,141.5C 63.0307,147.162 62.5307,152.829 62,158.5C 60.3333,159.833 58.6667,159.833 57,158.5C 56.2425,152.851 55.7425,147.184 55.5,141.5 Z M 98.5,142.5 C 101.024,143.927 103.69,145.094 106.5,146C 103.667,150.833 100.833,155.667 98,160.5C 95.5237,162.063 94.0237,161.396 93.5,158.5C 95.1771,153.137 96.8437,147.804 98.5,142.5 Z"/></g>
<g><path style="opacity:0.125" fill="#1097d7" d="M 103.5,91.5 C 103.833,91.5 104.167,91.5 104.5,91.5C 104.5,92.5 104.5,93.5 104.5,94.5C 103.833,94.1667 103.167,93.8333 102.5,93.5C 102.833,92.8333 103.167,92.1667 103.5,91.5 Z"/></g>
<g><path style="opacity:0.437" fill="#1196d8" d="M 106.5,100.5 C 107.906,100.973 108.573,101.973 108.5,103.5C 107.094,103.027 106.427,102.027 106.5,100.5 Z"/></g>
<g><path style="opacity:0.437" fill="#1196d8" d="M 102.5,124.5 C 103.906,124.973 104.573,125.973 104.5,127.5C 103.094,127.027 102.427,126.027 102.5,124.5 Z"/></g>
<g><path style="opacity:0.437" fill="#1196d8" d="M 17.5,156.5 C 18.9063,156.973 19.573,157.973 19.5,159.5C 18.0937,159.027 17.427,158.027 17.5,156.5 Z"/></g>
<g><path style="opacity:0.375" fill="#1096d8" d="M 35.5,176.5 C 37.5,176.5 38.5,177.5 38.5,179.5C 37.1667,178.833 36.1667,177.833 35.5,176.5 Z"/></g>
</svg>
